<svg xmlns="http://www.w3.org/2000/svg" xmlns:vectornator="http://vectornator.io" fill-rule="evenodd" stroke-linecap="round" stroke-linejoin="round" clip-rule="evenodd" viewBox="0 0 644.632 101.912">
  <defs/>
  <g fill="#fff" vectornator:layerName="レイヤー 1">
    <path d="M74.228 76.975h.192L89.492 17.07h6.72L78.068 86.19h-7.2L54.836 25.135h-.192L38.612 86.19h-7.2L13.556 17.07h6.528l14.88 59.905h.192L51.188 17.07h7.296l15.744 59.904z"/>
    <path d="M95.332 86.19V17.07h45.984v5.569H101.86v24.96h35.616v5.568H101.86v27.456h40.416v5.567H95.332zM150.516 80.623h16.608c3.584 0 6.704-.16 9.36-.48 2.656-.32 4.848-.977 6.576-1.969 1.728-.992 3.024-2.4 3.888-4.224.864-1.824 1.296-4.24 1.296-7.248 0-2.88-.48-5.2-1.44-6.96-.96-1.76-2.336-3.12-4.128-4.08-1.792-.96-3.936-1.615-6.432-1.968-2.496-.352-5.28-.528-8.352-.528h-17.376v27.457zm0-33.025h16.512c3.392 0 6.24-.288 8.544-.864 2.304-.576 4.16-1.424 5.568-2.544 1.408-1.12 2.416-2.495 3.024-4.127.608-1.633.912-3.505.912-5.617 0-2.175-.352-4.015-1.056-5.52-.704-1.503-1.824-2.72-3.36-3.647-1.536-.928-3.536-1.6-6-2.017-2.464-.416-5.488-.623-9.072-.623h-15.072v24.96zm-6.528 38.593V17.07h24.96c4.032 0 7.488.415 10.368 1.247 2.88.832 5.232 2.016 7.056 3.552 1.824 1.537 3.152 3.377 3.984 5.52.832 2.145 1.248 4.497 1.248 7.056 0 2.433-.32 4.529-.96 6.288-.64 1.76-1.472 3.233-2.496 4.416-1.024 1.184-2.192 2.113-3.504 2.785a14.664 14.664 0 01-4.08 1.392v.192c4.8.703 8.368 2.592 10.704 5.663 2.336 3.072 3.504 6.912 3.504 11.52 0 3.585-.56 6.624-1.68 9.12-1.12 2.496-2.672 4.513-4.656 6.049-1.984 1.535-4.368 2.64-7.152 3.312-2.784.671-5.808 1.007-9.072 1.007h-28.224z"/>
    <g>
      <path d="M210.059 29.097V74.19h13.312c6.813 0 11.563-3.359 14.25-10.078 1.469-3.687 2.203-8.078 2.203-13.171 0-7.032-1.101-12.43-3.304-16.196-2.204-3.765-6.586-5.648-13.149-5.648h-13.312zm15.75-12c4.281.062 7.843.562 10.687 1.5 4.844 1.593 8.766 4.515 11.766 8.765 2.406 3.438 4.047 7.157 4.922 11.157s1.312 7.812 1.312 11.437c0 9.188-1.844 16.969-5.531 23.344-5 8.594-12.719 12.89-23.156 12.89h-29.766V17.097h29.766zM306.465 29.331h-36.563v14.672h33.563v12h-33.563v17.766h38.25V86.19h-52.359V17.097h50.672V29.33z"/>
      <path d="M349.855 17.097h15L341.277 86.19h-13.64l-23.344-69.094h15.422l15 52.453 15.14-52.453z"/>
    </g>
    <g>
      <path d="M364.834 17.07h50.304v5.569H393.25V86.19h-6.528V22.638h-21.888V17.07zM411.562 51.727c0-5.056.688-9.792 2.064-14.208 1.376-4.416 3.408-8.272 6.096-11.568 2.688-3.297 6.016-5.904 9.984-7.825 3.968-1.92 8.544-2.88 13.728-2.88 5.376 0 10.096.944 14.16 2.832 4.064 1.889 7.456 4.48 10.176 7.777 2.72 3.296 4.768 7.168 6.144 11.616 1.376 4.448 2.064 9.2 2.064 14.256 0 4.992-.688 9.68-2.064 14.063-1.376 4.384-3.408 8.224-6.096 11.52-2.688 3.296-6.048 5.904-10.08 7.825-4.032 1.92-8.704 2.88-14.016 2.88-5.312 0-9.984-.96-14.016-2.88s-7.392-4.529-10.08-7.825c-2.688-3.296-4.704-7.136-6.048-11.52-1.344-4.384-2.016-9.072-2.016-14.064zm32.256 30.72c4.48 0 8.336-.849 11.568-2.544 3.232-1.697 5.888-3.953 7.968-6.769 2.08-2.816 3.616-6.08 4.608-9.791.992-3.713 1.488-7.585 1.488-11.617 0-4.8-.592-9.103-1.776-12.911-1.184-3.808-2.896-7.056-5.136-9.744a22.036 22.036 0 00-8.16-6.145c-3.2-1.407-6.784-2.111-10.752-2.111-4.416 0-8.24.863-11.472 2.591-3.232 1.729-5.888 4.017-7.968 6.864-2.08 2.848-3.616 6.128-4.608 9.84-.992 3.712-1.488 7.584-1.488 11.617 0 4.096.496 8 1.488 11.712.992 3.711 2.528 6.976 4.608 9.792 2.08 2.816 4.736 5.056 7.968 6.72 3.232 1.664 7.12 2.496 11.664 2.496zM476.05 51.727c0-5.056.688-9.792 2.064-14.208 1.376-4.416 3.408-8.272 6.096-11.568 2.688-3.297 6.016-5.904 9.984-7.825 3.968-1.92 8.544-2.88 13.728-2.88 5.376 0 10.096.944 14.16 2.832 4.064 1.889 7.456 4.48 10.176 7.777 2.72 3.296 4.768 7.168 6.144 11.616 1.376 4.448 2.064 9.2 2.064 14.256 0 4.992-.688 9.68-2.064 14.063-1.376 4.384-3.408 8.224-6.096 11.52-2.688 3.296-6.048 5.904-10.08 7.825-4.032 1.92-8.704 2.88-14.016 2.88-5.312 0-9.984-.96-14.016-2.88s-7.392-4.529-10.08-7.825c-2.688-3.296-4.704-7.136-6.048-11.52-1.344-4.384-2.016-9.072-2.016-14.064zm32.256 30.72c4.48 0 8.336-.849 11.568-2.544 3.232-1.697 5.888-3.953 7.968-6.769 2.08-2.816 3.616-6.08 4.608-9.791.992-3.713 1.488-7.585 1.488-11.617 0-4.8-.592-9.103-1.776-12.911-1.184-3.808-2.896-7.056-5.136-9.744a22.036 22.036 0 00-8.16-6.145c-3.2-1.407-6.784-2.111-10.752-2.111-4.416 0-8.24.863-11.472 2.591-3.232 1.729-5.888 4.017-7.968 6.864-2.08 2.848-3.616 6.128-4.608 9.84-.992 3.712-1.488 7.584-1.488 11.617 0 4.096.496 8 1.488 11.712.992 3.711 2.528 6.976 4.608 9.792 2.08 2.816 4.736 5.056 7.968 6.72 3.232 1.664 7.12 2.496 11.664 2.496zM543.226 86.19V17.07h6.528v63.553h37.056v5.567h-43.584zM589.09 65.55c.256 3.073.944 5.68 2.064 7.825 1.12 2.144 2.56 3.888 4.32 5.231 1.76 1.345 3.792 2.32 6.096 2.928 2.304.608 4.768.912 7.392.912 3.072 0 5.728-.383 7.968-1.151 2.24-.769 4.064-1.808 5.472-3.12 1.408-1.313 2.448-2.832 3.12-4.56a14.963 14.963 0 001.008-5.472c0-2.689-.608-4.864-1.824-6.529-1.216-1.663-2.8-3.023-4.752-4.08-1.952-1.056-4.192-1.904-6.72-2.544-2.528-.64-5.12-1.264-7.776-1.872a86.856 86.856 0 01-7.776-2.16c-2.528-.831-4.768-1.951-6.72-3.36-1.952-1.407-3.536-3.215-4.752-5.423-1.216-2.208-1.824-5.008-1.824-8.4 0-2.368.496-4.672 1.488-6.912s2.464-4.224 4.416-5.953c1.952-1.727 4.4-3.104 7.344-4.128s6.336-1.536 10.176-1.536c3.904 0 7.312.544 10.224 1.632 2.912 1.088 5.328 2.576 7.248 4.465a18.375 18.375 0 014.32 6.576c.96 2.495 1.44 5.152 1.44 7.967h-6.24c0-2.623-.464-4.896-1.392-6.816-.928-1.92-2.192-3.488-3.792-4.704-1.6-1.215-3.424-2.111-5.472-2.688a23.29 23.29 0 00-6.336-.864c-3.328 0-6.128.465-8.4 1.392-2.272.928-4.08 2.128-5.424 3.6-1.344 1.473-2.272 3.104-2.784 4.896a11.784 11.784 0 00-.288 5.376c.384 2.24 1.28 4.032 2.688 5.377 1.408 1.343 3.136 2.448 5.184 3.312 2.048.863 4.304 1.567 6.768 2.111 2.464.544 4.976 1.12 7.536 1.728 2.56.608 5.04 1.328 7.44 2.16 2.4.833 4.528 1.953 6.384 3.36 1.856 1.409 3.344 3.217 4.464 5.425 1.12 2.207 1.68 4.975 1.68 8.303 0 6.4-2.208 11.36-6.624 14.88-4.416 3.52-10.624 5.28-18.624 5.28-3.584 0-6.912-.463-9.984-1.391-3.072-.928-5.728-2.337-7.968-4.225-2.24-1.888-3.984-4.224-5.232-7.007-1.248-2.785-1.872-6.065-1.872-9.84h6.336z"/>
    </g>
  </g>
</svg>
